<svg width="33" height="33" viewBox="0 0 33 33" fill="none" xmlns="http://www.w3.org/2000/svg">
<path d="M28.4319 0H4.56813C3.35658 0 2.19466 0.481284 1.33797 1.33797C0.481279 2.19466 0 3.35659 0 4.56813V28.4319C0 29.6434 0.481279 30.8053 1.33797 31.662C2.19466 32.5187 3.35658 33 4.56813 33H28.4319C29.6434 33 30.8053 32.5187 31.662 31.662C32.5187 30.8053 33 29.6434 33 28.4319V4.56813C33 3.35659 32.5187 2.19466 31.662 1.33797C30.8053 0.481284 29.6434 0 28.4319 0ZM9.31154 23.252C9.32055 23.419 9.29545 23.586 9.23777 23.7429C9.18009 23.8998 9.09104 24.0434 8.97605 24.1647C8.86106 24.2861 8.72255 24.3827 8.56897 24.4488C8.41539 24.5149 8.24995 24.5489 8.08276 24.5489C7.91558 24.5489 7.75014 24.5149 7.59656 24.4488C7.44298 24.3827 7.30447 24.2861 7.18948 24.1647C7.07449 24.0434 6.98543 23.8998 6.92775 23.7429C6.87007 23.586 6.84497 23.419 6.85398 23.252V14.7633C6.87096 14.4488 7.00781 14.1529 7.23639 13.9363C7.46497 13.7197 7.76788 13.599 8.08276 13.599C8.39765 13.599 8.70056 13.7197 8.92914 13.9363C9.15772 14.1529 9.29457 14.4488 9.31154 14.7633V23.252ZM8.08097 11.0894C7.83744 11.0894 7.59938 11.0172 7.39693 10.8818C7.19449 10.7464 7.03678 10.554 6.94374 10.3289C6.85071 10.1039 6.82655 9.85628 6.87432 9.61747C6.9221 9.37867 7.03965 9.15941 7.2121 8.98745C7.38456 8.8155 7.60416 8.69858 7.84311 8.6515C8.08205 8.60442 8.32958 8.6293 8.55437 8.72299C8.77917 8.81668 8.97111 8.97496 9.10589 9.1778C9.24068 9.38064 9.31225 9.6189 9.31154 9.86244C9.3106 10.1882 9.18053 10.5003 8.94986 10.7303C8.71918 10.9603 8.40672 11.0894 8.08097 11.0894ZM19.6998 20.24C19.4562 20.2407 19.2177 20.169 19.0148 20.0341C18.8119 19.8992 18.6536 19.707 18.5601 19.482C18.4665 19.257 18.4418 19.0093 18.4892 18.7702C18.5365 18.5312 18.6538 18.3116 18.8261 18.1393C18.9984 17.967 19.218 17.8497 19.4571 17.8023C19.6961 17.755 19.9438 17.7796 20.1688 17.8732C20.3938 17.9668 20.586 18.1251 20.7209 18.328C20.8559 18.5309 20.9275 18.7693 20.9268 19.013C20.9268 19.1741 20.8951 19.3337 20.8334 19.4826C20.7718 19.6314 20.6814 19.7667 20.5674 19.8806C20.4535 19.9946 20.3183 20.0849 20.1694 20.1466C20.0205 20.2083 19.861 20.24 19.6998 20.24ZM26.8972 24.3037C26.6039 24.4332 26.272 24.4449 25.9704 24.3363C25.6687 24.2278 25.4203 24.0073 25.2767 23.7206C23.4237 20.0218 21.5731 16.3253 19.7249 12.6312L14.1408 23.7993C13.9952 24.0906 13.7398 24.3121 13.4309 24.4151C13.1219 24.518 12.7848 24.4941 12.4935 24.3485C12.2022 24.2028 11.9807 23.9475 11.8778 23.6385C11.7748 23.3296 11.7988 22.9924 11.9444 22.7011L18.6231 9.34732C18.7271 9.14368 18.8854 8.97274 19.0805 8.85336C19.2755 8.73398 19.4998 8.67081 19.7285 8.67081C19.9571 8.67081 20.1814 8.73398 20.3764 8.85336C20.5715 8.97274 20.7298 9.14368 20.8338 9.34732L27.4732 22.626C27.5463 22.7738 27.5894 22.9347 27.6 23.0993C27.6106 23.2639 27.5885 23.4289 27.535 23.5849C27.4814 23.7409 27.3975 23.8848 27.288 24.0082C27.1786 24.1315 27.0457 24.232 26.8972 24.3037Z" fill="white"/>
</svg>
