<svg width="219" height="61" viewBox="0 0 219 61" fill="none" xmlns="http://www.w3.org/2000/svg">
<path d="M50.6049 29.9978C50.6049 33.7339 51.7092 37.3862 53.7782 40.4927C55.8473 43.5992 58.7881 46.0204 62.2287 47.4502C65.6694 48.8799 69.4554 49.254 73.108 48.5251C76.7606 47.7963 80.1158 45.9971 82.7492 43.3553C85.3826 40.7134 87.1759 37.3475 87.9025 33.6831C88.629 30.0187 88.2561 26.2205 86.831 22.7687C85.4058 19.317 82.9923 16.3667 79.8958 14.291C76.7992 12.2153 73.1587 11.1074 69.4346 11.1074C64.4406 11.1074 59.6512 13.0977 56.1199 16.6403C52.5887 20.1829 50.6049 24.9877 50.6049 29.9978ZM82.38 29.9978C82.381 32.5666 81.6227 35.078 80.2008 37.2145C78.779 39.3509 76.7576 41.0163 74.3922 42C72.0268 42.9838 69.4237 43.2417 66.9122 42.7412C64.4007 42.2407 62.0936 41.0042 60.2826 39.1882C58.4716 37.3721 57.2382 35.058 56.7382 32.5386C56.2383 30.0192 56.4944 27.4077 57.474 25.0343C58.4537 22.6609 60.113 20.6323 62.2419 19.205C64.3709 17.7777 66.874 17.0159 69.4346 17.0159C72.8666 17.0173 76.1577 18.3853 78.585 20.8194C81.0123 23.2535 82.3772 26.5547 82.38 29.9978Z" fill="white"/>
<path d="M29.5312 16.8795C31.8835 16.8788 34.1915 17.5213 36.207 18.738C38.2225 19.9547 39.8693 21.6996 40.9703 23.785L45.8817 20.5001C43.8231 16.8816 40.6297 14.0474 36.7987 12.4386C32.9677 10.8299 28.7141 10.5369 24.6999 11.6052C20.6856 12.6736 17.1361 15.0434 14.6038 18.3457C12.0715 21.648 10.6985 25.6975 10.6985 29.864C10.6985 34.0304 12.0715 38.08 14.6038 41.3823C17.1361 44.6846 20.6856 47.0544 24.6999 48.1227C28.7141 49.1911 32.9677 48.8981 36.7987 47.2894C40.6297 45.6806 43.8231 42.8464 45.8817 39.2278L40.9703 35.943C39.8976 37.9757 38.3061 39.6862 36.3584 40.8996C34.4108 42.1129 32.1769 42.7856 29.8851 42.8488C27.5933 42.912 25.3259 42.3636 23.3148 41.2594C21.3036 40.1553 19.6207 38.5352 18.4383 36.5646C17.2559 34.5941 16.6164 32.3439 16.585 30.0441C16.5537 27.7443 17.1317 25.4774 18.26 23.4752C19.3882 21.473 21.0263 19.8073 23.0067 18.6485C24.987 17.4896 27.2386 16.8791 29.5312 16.8795Z" fill="white"/>
<path d="M5.86858 0.224609H0V60.4323H118.847C121.968 60.4323 124.961 59.1885 127.168 56.9743C129.376 54.7602 130.615 51.7571 130.615 48.6259V10.8452H124.731V16.019C122.059 13.4803 118.703 11.7829 115.08 11.1367C111.456 10.4905 107.723 10.9239 104.342 12.3832C100.961 13.8426 98.0809 16.2639 96.057 19.3479C94.0332 22.4318 92.9545 26.0432 92.9545 29.7355C92.9545 33.4279 94.0332 37.0392 96.057 40.1232C98.0809 43.2072 100.961 45.6285 104.342 47.0878C107.723 48.5472 111.456 48.9805 115.08 48.3344C118.703 47.6882 122.059 45.9908 124.731 43.452V48.6259C124.728 50.1907 124.108 51.6906 123.005 52.797C121.902 53.9035 120.407 54.5263 118.847 54.5291H5.86858V6.12259H160.037V38.2309L141.207 10.8452H138.853L138.812 10.7822L138.723 10.8452H135.323V48.6259H141.207V21.2401L160.037 48.6259H165.921V0.224609H5.86858ZM111.786 42.7279C109.225 42.7279 106.722 41.9662 104.594 40.5392C102.465 39.1121 100.805 37.0838 99.8257 34.7107C98.8459 32.3377 98.5895 29.7264 99.089 27.2071C99.5885 24.6879 100.821 22.3738 102.632 20.5575C104.442 18.7412 106.749 17.5043 109.26 17.0032C111.771 16.5021 114.374 16.7593 116.74 17.7422C119.105 18.7252 121.127 20.3898 122.549 22.5255C123.972 24.6612 124.731 27.1722 124.731 29.7408C124.731 33.1824 123.369 36.4834 120.945 38.9185C118.521 41.3536 115.232 42.7237 111.801 42.7279H111.786Z" fill="white"/>
<path d="M212.3 0.224417H177.428C176.551 0.223727 175.683 0.396403 174.873 0.732579C174.062 1.06875 173.326 1.56184 172.705 2.18365C172.085 2.80546 171.593 3.54381 171.257 4.3565C170.922 5.16918 170.749 6.04028 170.749 6.92V41.9301C170.75 43.7064 171.455 45.4094 172.707 46.6649C173.959 47.9204 175.658 48.6257 177.428 48.6257H212.321C214.092 48.6257 215.791 47.9197 217.044 46.6631C218.296 45.4064 219 43.702 219 41.9249V6.91475C218.999 6.0337 218.825 5.16145 218.488 4.348C218.151 3.53455 217.657 2.79588 217.034 2.17435C216.412 1.55282 215.673 1.06065 214.861 0.726037C214.048 0.391427 213.178 0.220964 212.3 0.224417ZM184.338 34.332C184.351 34.5769 184.314 34.8219 184.23 35.0521C184.145 35.2822 184.015 35.4928 183.847 35.6708C183.679 35.8488 183.476 35.9906 183.252 36.0875C183.027 36.1844 182.785 36.2344 182.541 36.2344C182.297 36.2344 182.055 36.1844 181.83 36.0875C181.606 35.9906 181.403 35.8488 181.235 35.6708C181.067 35.4928 180.937 35.2822 180.852 35.0521C180.768 34.8219 180.731 34.5769 180.744 34.332V21.8696C180.769 21.4084 180.969 20.9743 181.303 20.6566C181.638 20.3389 182.081 20.1618 182.541 20.1618C183.001 20.1618 183.444 20.3389 183.778 20.6566C184.113 20.9743 184.313 21.4084 184.338 21.8696V34.332ZM182.544 16.4911C182.187 16.4921 181.839 16.387 181.542 16.1891C181.245 15.9911 181.014 15.7093 180.877 15.3792C180.74 15.0492 180.704 14.6858 180.773 14.3352C180.843 13.9845 181.014 13.6624 181.266 13.4096C181.518 13.1569 181.839 12.9849 182.189 12.9154C182.538 12.8459 182.9 12.8821 183.229 13.0194C183.558 13.1566 183.839 13.3888 184.037 13.6865C184.234 13.9841 184.339 14.3338 184.338 14.6913C184.336 15.1682 184.147 15.6252 183.811 15.9624C183.475 16.2997 183.019 16.4897 182.544 16.4911ZM199.532 29.9137C199.177 29.9137 198.83 29.8082 198.535 29.6104C198.24 29.4127 198.01 29.1316 197.875 28.8027C197.739 28.4738 197.703 28.1119 197.773 27.7628C197.842 27.4137 198.013 27.093 198.264 26.8412C198.514 26.5895 198.834 26.4181 199.182 26.3487C199.53 26.2792 199.891 26.3149 200.219 26.4511C200.547 26.5873 200.827 26.818 201.024 27.114C201.221 27.41 201.326 27.7579 201.326 28.1139C201.323 28.5894 201.133 29.0445 200.797 29.3798C200.461 29.7151 200.006 29.9033 199.532 29.9033V29.9137ZM210.056 35.8747C209.626 36.0662 209.14 36.0842 208.698 35.9249C208.255 35.7655 207.891 35.4412 207.681 35.0194L199.564 18.7527L191.399 35.1348C191.186 35.5621 190.812 35.887 190.361 36.038C189.909 36.1891 189.416 36.1539 188.99 35.9403C188.564 35.7267 188.24 35.3521 188.09 34.8989C187.939 34.4458 187.974 33.9511 188.187 33.5239L197.958 13.9357C198.11 13.6394 198.34 13.3904 198.623 13.2157C198.906 13.0409 199.231 12.9469 199.564 12.9439C199.9 12.9422 200.229 13.0346 200.516 13.2107C200.802 13.3869 201.034 13.6398 201.185 13.9409L210.903 33.398C211.012 33.6153 211.076 33.852 211.091 34.0944C211.107 34.3369 211.075 34.58 210.996 34.8097C210.917 35.0394 210.793 35.2509 210.632 35.432C210.47 35.6131 210.275 35.76 210.056 35.8642V35.8747Z" fill="white"/>
</svg>
