<svg width="287" height="78" viewBox="0 0 287 78" fill="none" xmlns="http://www.w3.org/2000/svg">
<path d="M54.5236 31.9928C54.5236 36.0054 55.7135 39.9278 57.9427 43.2642C60.172 46.6005 63.3405 49.2008 67.0477 50.7364C70.7548 52.2719 74.834 52.6737 78.7694 51.8909C82.7049 51.108 86.3199 49.1758 89.1572 46.3385C91.9945 43.5012 93.9267 39.8863 94.7095 35.9508C95.4923 32.0153 95.0906 27.9361 93.555 24.229C92.0195 20.5219 89.4191 17.3534 86.0828 15.1241C82.7465 12.8948 78.824 11.705 74.8115 11.705C69.4308 11.705 64.2705 13.8424 60.4658 17.6471C56.6611 21.4519 54.5236 26.6122 54.5236 31.9928ZM88.7594 31.9928C88.7594 34.7515 87.9414 37.4481 86.4087 39.7419C84.8761 42.0356 82.6978 43.8233 80.1491 44.879C77.6005 45.9347 74.796 46.2109 72.0904 45.6727C69.3847 45.1346 66.8995 43.8061 64.9488 41.8555C62.9982 39.9048 61.6698 37.4196 61.1316 34.7139C60.5934 32.0083 60.8696 29.2038 61.9253 26.6552C62.981 24.1066 64.7687 21.9282 67.0624 20.3956C69.3562 18.8629 72.0528 18.0449 74.8115 18.0449C78.5107 18.0449 82.0584 19.5144 84.6741 22.1302C87.2899 24.7459 88.7594 28.2936 88.7594 31.9928Z" fill="url(#paint0_linear_113_2)"/>
<path d="M31.8181 17.904C34.3534 17.9026 36.841 18.593 39.0128 19.9009C41.1847 21.2087 42.9584 23.0845 44.143 25.326L49.4347 21.7982C47.2172 17.9113 43.7767 14.8667 39.649 13.1384C35.5213 11.41 30.938 11.0949 26.6125 12.242C22.2871 13.3891 18.4623 15.9341 15.7336 19.4809C13.0049 23.0276 11.5253 27.377 11.5253 31.8519C11.5253 36.3269 13.0049 40.6763 15.7336 44.223C18.4623 47.7697 22.2871 50.3148 26.6125 51.4619C30.938 52.609 35.5213 52.2939 39.649 50.5655C43.7767 48.8371 47.2172 45.7925 49.4347 41.9057L44.143 38.3779C42.9873 40.561 41.2725 42.398 39.174 43.7011C37.0755 45.0042 34.6686 45.7267 32.1994 45.7946C29.7301 45.8625 27.2872 45.2734 25.1202 44.0876C22.9533 42.9018 21.1401 41.1618 19.8662 39.0455C18.5922 36.9292 17.9031 34.5125 17.8693 32.0426C17.8356 29.5726 18.4584 27.138 19.674 24.9877C20.8897 22.8374 22.6546 21.0485 24.7883 19.8039C26.922 18.5593 29.348 17.9036 31.8181 17.904Z" fill="url(#paint1_linear_113_2)"/>
<path d="M6.33996 0H0V64.6788H128.067C131.43 64.6788 134.655 63.3429 137.033 60.965C139.411 58.587 140.747 55.3618 140.747 51.9989V11.4232H134.407V16.9798C131.528 14.2532 127.912 12.4303 124.008 11.7363C120.104 11.0423 116.082 11.5077 112.439 13.075C108.797 14.6423 105.693 17.2428 103.512 20.5549C101.332 23.867 100.17 27.7456 100.17 31.7111C100.17 35.6765 101.332 39.5551 103.512 42.8672C105.693 46.1793 108.797 48.7798 112.439 50.3471C116.082 51.9144 120.104 52.3798 124.008 51.6858C127.912 50.9918 131.528 49.1689 134.407 46.4423V51.9989C134.407 53.6804 133.739 55.293 132.55 56.4819C131.361 57.6709 129.749 58.3389 128.067 58.3389H6.33996V6.33997H172.447V40.8237L152.159 11.4119H149.623L149.578 11.3443L149.488 11.4119H145.819V51.9877H152.159V22.5759L172.447 51.9877H178.787V0H6.33996ZM120.459 45.6477C117.701 45.6477 115.004 44.8297 112.71 43.297C110.416 41.7644 108.629 39.5861 107.573 37.0374C106.517 34.4888 106.241 31.6843 106.779 28.9787C107.317 26.2731 108.646 23.7878 110.597 21.8371C112.547 19.8865 115.032 18.5581 117.738 18.0199C120.444 17.4817 123.248 17.7579 125.797 18.8136C128.345 19.8693 130.524 21.657 132.056 23.9508C133.589 26.2445 134.407 28.9412 134.407 31.6998C134.407 35.399 132.938 38.9467 130.322 41.5624C127.706 44.1782 124.158 45.6477 120.459 45.6477Z" fill="url(#paint2_linear_113_2)"/>
<path d="M145.825 76.8966V58.6996H147.273V76.8966H145.825Z" fill="url(#paint3_linear_113_2)"/>
<path d="M164.292 69.4296V76.8966H162.827V69.7959C162.838 69.0216 162.751 68.249 162.568 67.4966C162.421 66.8781 162.155 66.2942 161.784 65.7778C161.445 65.3131 160.993 64.9426 160.471 64.7014C159.883 64.4461 159.247 64.3211 158.606 64.3351C157.943 64.3206 157.285 64.4514 156.679 64.7183C156.152 64.9655 155.694 65.3368 155.343 65.8003C154.977 66.2944 154.711 66.8553 154.56 67.4515C154.381 68.13 154.293 68.8293 154.3 69.531V76.8966H152.835V63.2474H154.16V65.3044C154.591 64.5953 155.201 64.0122 155.929 63.6137C156.813 63.1479 157.799 62.9115 158.798 62.9262C159.483 62.9162 160.164 63.0288 160.809 63.2587C161.383 63.4603 161.909 63.7745 162.359 64.1829C162.801 64.5879 163.169 65.0665 163.447 65.5974C163.739 66.1632 163.953 66.7661 164.084 67.3895C164.226 68.0601 164.296 68.744 164.292 69.4296Z" fill="url(#paint4_linear_113_2)"/>
<path d="M172.351 64.5774V72.129C172.351 72.6925 172.351 73.1772 172.351 73.5548C172.357 73.912 172.446 74.263 172.61 74.5804C172.747 74.8588 172.95 75.0999 173.2 75.2834C173.45 75.4669 173.741 75.5872 174.047 75.6343C174.882 75.7569 175.732 75.7379 176.561 75.5779V76.8966C175.857 77.0539 175.134 77.1146 174.414 77.077C173.758 77.0512 173.115 76.888 172.526 76.5979C171.976 76.3144 171.537 75.8538 171.28 75.2905C171.059 74.8357 170.931 74.3414 170.903 73.8365C170.903 73.3462 170.863 72.7883 170.863 72.1459V64.5774H167.809V63.2474H170.863V59.4603H172.329V63.2474H176.561V64.5774H172.351Z" fill="url(#paint5_linear_113_2)"/>
<path d="M188.886 75.1214C188.054 75.6245 187.096 75.8806 186.124 75.8597C185.457 75.8955 184.79 75.7775 184.175 75.5146C183.561 75.2518 183.015 74.8511 182.579 74.3437C181.744 73.2346 181.306 71.8772 181.334 70.489H192.368C192.429 69.0814 192.189 67.6769 191.664 66.3695C191.232 65.3006 190.483 64.3899 189.517 63.7602C188.501 63.1382 187.326 62.8249 186.135 62.8585C184.949 62.8283 183.778 63.1309 182.754 63.7321C181.793 64.3282 181.028 65.1946 180.556 66.2229C180.012 67.4354 179.746 68.7545 179.779 70.0833C179.748 71.3961 180.016 72.6987 180.562 73.8929C181.043 74.9202 181.813 75.7856 182.777 76.3838C183.799 76.9883 184.971 77.293 186.158 77.2629C187.409 77.2847 188.64 76.9505 189.708 76.2993C190.753 75.646 191.579 74.6964 192.081 73.5717L190.768 73.0081C190.349 73.8735 189.697 74.6052 188.886 75.1214ZM182.591 65.7721C183.028 65.2587 183.578 64.8537 184.198 64.5887C184.818 64.3237 185.491 64.206 186.164 64.2449C186.81 64.2071 187.456 64.3198 188.052 64.574C188.647 64.8283 189.176 65.2171 189.596 65.7101C190.342 66.7159 190.767 67.9242 190.813 69.176H181.362C181.408 67.9412 181.837 66.7513 182.591 65.7721Z" fill="url(#paint6_linear_113_2)"/>
<path d="M197.181 76.8966V58.2994H198.635V76.8966H197.181Z" fill="url(#paint7_linear_113_2)"/>
<path d="M204.445 76.8966V58.2994H205.899V76.8966H204.445Z" fill="url(#paint8_linear_113_2)"/>
<path d="M211.71 60.4973V58.6376H213.163V60.4973H211.71ZM211.71 76.8966V63.2474H213.163V76.8966H211.71Z" fill="url(#paint9_linear_113_2)"/>
<path d="M218.974 76.8966V58.6996H220.428V75.4821H229.275V76.8966H218.974Z" fill="url(#paint10_linear_113_2)"/>
<path d="M241.544 75.1214C240.712 75.6245 239.754 75.8806 238.782 75.8597C238.115 75.8955 237.448 75.7775 236.834 75.5146C236.219 75.2518 235.673 74.8512 235.238 74.3437C234.405 73.2334 233.967 71.8768 233.992 70.489H245.027C245.086 69.0851 244.846 67.6847 244.322 66.3808C243.89 65.3119 243.141 64.4012 242.175 63.7715C241.159 63.1489 239.985 62.8355 238.794 62.8698C237.607 62.8387 236.436 63.1414 235.412 63.7433C234.45 64.3379 233.685 65.2048 233.215 66.2342C232.67 67.4467 232.404 68.7658 232.437 70.0946C232.403 71.4076 232.671 72.7108 233.22 73.9042C233.698 74.9324 234.466 75.7983 235.429 76.3951C236.452 76.9996 237.623 77.3042 238.811 77.2742C240.062 77.296 241.293 76.9618 242.361 76.3105C243.408 75.6599 244.234 74.7095 244.734 73.5829L243.421 73.0194C243.001 73.8799 242.351 74.6074 241.544 75.1214ZM235.238 65.7721C235.675 65.2588 236.225 64.8537 236.845 64.5887C237.465 64.3237 238.138 64.206 238.811 64.2449C239.458 64.2071 240.105 64.3197 240.702 64.574C241.298 64.8282 241.827 65.217 242.248 65.7101C242.99 66.7218 243.41 67.9334 243.454 69.1872H234.02C234.063 67.9503 234.488 66.7571 235.238 65.7721Z" fill="url(#paint11_linear_113_2)"/>
<path d="M259.848 66.9331C259.809 66.4971 259.711 66.0685 259.555 65.6594C259.223 64.7834 258.589 64.0542 257.769 63.6025C256.795 63.0847 255.703 62.832 254.601 62.8699C253.319 62.8156 252.052 63.1644 250.978 63.8673C250.018 64.5533 249.347 65.5716 249.095 66.7245L250.583 67.1416C250.781 66.2744 251.281 65.5056 251.992 64.9719C252.752 64.4801 253.646 64.2359 254.551 64.2731C256.027 64.2731 257.058 64.6338 257.645 65.3551C258.256 66.2471 258.546 67.32 258.467 68.3983L257.075 68.5674C256.286 68.6613 255.458 68.7684 254.59 68.8886C253.722 69.0126 252.899 69.1591 252.167 69.3281C251.534 69.478 250.927 69.7191 250.363 70.0439C249.833 70.3548 249.386 70.7899 249.062 71.3118C248.721 71.9016 248.553 72.5754 248.577 73.2561C248.573 73.9532 248.752 74.6391 249.095 75.2454C249.462 75.8767 250.005 76.3878 250.657 76.7163C251.47 77.1174 252.37 77.311 253.277 77.2799C254.566 77.3118 255.835 76.965 256.929 76.2824C257.626 75.8441 258.207 75.2426 258.62 74.5297V76.9023H259.944V68.3927C259.937 67.9048 259.905 67.4176 259.848 66.9331ZM258.456 70.4271C258.452 70.9224 258.405 71.4164 258.315 71.9036C258.221 72.6707 257.938 73.4025 257.492 74.0338C257.058 74.638 256.476 75.121 255.802 75.437C255.036 75.7822 254.202 75.9517 253.362 75.933C252.69 75.9658 252.02 75.8261 251.417 75.5272C250.978 75.2999 250.618 74.9441 250.386 74.5072C250.189 74.1231 250.083 73.6989 250.076 73.2674C250.056 72.7777 250.197 72.295 250.476 71.8923C250.738 71.5334 251.079 71.2402 251.474 71.0357C251.856 70.8403 252.256 70.6818 252.668 70.5623C253.376 70.3825 254.092 70.2432 254.816 70.1453C255.61 70.0382 256.388 69.9481 257.149 69.8692C257.633 69.8241 258.073 69.7734 258.473 69.7283C258.467 69.9255 258.462 70.1622 258.456 70.4271Z" fill="url(#paint12_linear_113_2)"/>
<path d="M271.367 63.2474V64.6281C270.813 64.5024 270.24 64.4757 269.676 64.5492C269.049 64.6417 268.462 64.9138 267.986 65.3326C267.54 65.7146 267.192 66.1976 266.971 66.7414C266.76 67.2836 266.625 67.8527 266.571 68.4321C266.512 68.9937 266.482 69.558 266.481 70.1227V76.8854H265.016V63.2474H266.34V65.4114C266.415 65.2736 266.498 65.14 266.588 65.0113C266.792 64.71 267.032 64.4355 267.304 64.1942C267.671 63.8545 268.105 63.5954 268.577 63.4334C269.052 63.2616 269.55 63.1591 270.054 63.1291C270.495 63.1007 270.938 63.1406 271.367 63.2474Z" fill="url(#paint13_linear_113_2)"/>
<path d="M287 69.4296V76.8966H285.535V69.7959C285.543 69.0217 285.456 68.2495 285.276 67.4966C285.129 66.8781 284.863 66.2942 284.492 65.7778C284.152 65.3124 283.698 64.9419 283.173 64.7014C282.588 64.4455 281.953 64.3205 281.314 64.3351C280.651 64.3196 279.993 64.4504 279.386 64.7183C278.858 64.9639 278.397 65.3354 278.045 65.8003C277.681 66.2958 277.415 66.8562 277.262 67.4515C277.085 68.1305 276.998 68.8295 277.003 69.531V76.8966H275.537V63.2474H276.867V65.2987C277.299 64.592 277.907 64.0095 278.631 63.6081C279.515 63.143 280.501 62.9066 281.5 62.9206C282.187 62.9107 282.87 63.0232 283.517 63.2531C284.09 63.456 284.616 63.7701 285.067 64.1773C285.507 64.5825 285.873 65.0611 286.149 65.5918C286.443 66.1574 286.659 66.7602 286.791 67.3839C286.932 68.0567 287.002 68.7423 287 69.4296Z" fill="url(#paint14_linear_113_2)"/>
<path d="M228.74 0.0901737H191.145C189.237 0.0901737 187.406 0.848382 186.057 2.198C184.707 3.54761 183.949 5.37809 183.949 7.28673V44.8813C183.949 46.7899 184.707 48.6204 186.057 49.97C187.406 51.3196 189.237 52.0778 191.145 52.0778H228.74C230.649 52.0778 232.479 51.3196 233.829 49.97C235.178 48.6204 235.937 46.7899 235.937 44.8813V7.28673C235.937 6.34167 235.75 5.40585 235.389 4.53273C235.027 3.6596 234.497 2.86626 233.829 2.198C233.16 1.52974 232.367 0.999641 231.494 0.63798C230.621 0.27632 229.685 0.0901737 228.74 0.0901737ZM198.618 36.721C198.632 36.984 198.593 37.2472 198.502 37.4944C198.411 37.7416 198.271 37.9677 198.09 38.1589C197.908 38.3501 197.69 38.5023 197.448 38.6064C197.206 38.7105 196.946 38.7641 196.682 38.7641C196.419 38.7641 196.158 38.7105 195.916 38.6064C195.674 38.5023 195.456 38.3501 195.275 38.1589C195.094 37.9677 194.954 37.7416 194.863 37.4944C194.772 37.2472 194.732 36.984 194.747 36.721V23.348C194.732 23.085 194.772 22.8218 194.863 22.5746C194.954 22.3274 195.094 22.1013 195.275 21.9101C195.456 21.7189 195.674 21.5666 195.916 21.4626C196.158 21.3585 196.419 21.3049 196.682 21.3049C196.946 21.3049 197.206 21.3585 197.448 21.4626C197.69 21.5666 197.908 21.7189 198.09 21.9101C198.271 22.1013 198.411 22.3274 198.502 22.5746C198.593 22.8218 198.632 23.085 198.618 23.348V36.721ZM196.68 17.5603C196.297 17.5592 195.924 17.4449 195.607 17.2318C195.29 17.0187 195.043 16.7164 194.898 16.3631C194.752 16.0098 194.715 15.6213 194.79 15.2467C194.865 14.8722 195.05 14.5283 195.32 14.2585C195.591 13.9887 195.935 13.8052 196.31 13.731C196.685 13.6569 197.073 13.6955 197.426 13.842C197.779 13.9885 198.081 14.2362 198.293 14.554C198.505 14.8717 198.618 15.2452 198.618 15.6273C198.617 15.8811 198.567 16.1324 198.469 16.3666C198.371 16.6008 198.228 16.8135 198.048 16.9925C197.868 17.1714 197.654 17.3132 197.42 17.4097C197.185 17.5061 196.933 17.5554 196.68 17.5546V17.5603ZM214.984 31.9928C214.6 31.994 214.225 31.8812 213.905 31.6689C213.586 31.4565 213.336 31.1541 213.189 30.8C213.041 30.4459 213.002 30.0559 213.076 29.6795C213.15 29.3031 213.334 28.9571 213.605 28.6854C213.876 28.4137 214.222 28.2285 214.598 28.1533C214.974 28.078 215.364 28.1161 215.719 28.2626C216.073 28.4092 216.376 28.6577 216.59 28.9766C216.803 29.2955 216.917 29.6706 216.917 30.0542C216.917 30.3085 216.868 30.5605 216.771 30.7957C216.674 31.0308 216.532 31.2446 216.353 31.4247C216.173 31.6048 215.96 31.7477 215.725 31.8452C215.49 31.9426 215.238 31.9928 214.984 31.9928ZM226.322 38.3892C225.861 38.596 225.337 38.6159 224.861 38.4446C224.385 38.2733 223.994 37.9242 223.769 37.4706C220.85 31.6509 217.935 25.8276 215.023 20.0005L206.226 37.5889C205.997 38.0478 205.594 38.3967 205.108 38.5589C204.621 38.7211 204.09 38.6834 203.631 38.454C203.172 38.2245 202.823 37.8222 202.661 37.3355C202.499 36.8489 202.536 36.3176 202.766 35.8588L213.287 14.8271C213.45 14.5046 213.699 14.2335 214.006 14.0441C214.314 13.8548 214.668 13.7545 215.029 13.7545C215.39 13.7545 215.744 13.8548 216.051 14.0441C216.359 14.2335 216.608 14.5046 216.77 14.8271C220.253 21.8038 223.739 28.7768 227.23 35.7461C227.457 36.2148 227.489 36.7545 227.319 37.2468C227.149 37.7391 226.791 38.1439 226.322 38.3722V38.3892Z" fill="url(#paint15_linear_113_2)"/>
<defs>
<linearGradient id="paint0_linear_113_2" x1="-4.37582e-06" y1="38.6371" x2="287" y2="38.6371" gradientUnits="userSpaceOnUse">
<stop offset="0.27" stop-color="#132946"/>
<stop offset="0.49" stop-color="#282D76"/>
<stop offset="0.68" stop-color="#3C31A3"/>
</linearGradient>
<linearGradient id="paint1_linear_113_2" x1="-9.83247e-06" y1="38.6371" x2="287" y2="38.6371" gradientUnits="userSpaceOnUse">
<stop offset="0.27" stop-color="#132946"/>
<stop offset="0.49" stop-color="#282D76"/>
<stop offset="0.68" stop-color="#3C31A3"/>
</linearGradient>
<linearGradient id="paint2_linear_113_2" x1="0" y1="38.6371" x2="287" y2="38.6371" gradientUnits="userSpaceOnUse">
<stop offset="0.27" stop-color="#132946"/>
<stop offset="0.49" stop-color="#282D76"/>
<stop offset="0.68" stop-color="#3C31A3"/>
</linearGradient>
<linearGradient id="paint3_linear_113_2" x1="0.00131451" y1="38.6371" x2="286.999" y2="38.6371" gradientUnits="userSpaceOnUse">
<stop offset="0.27" stop-color="#132946"/>
<stop offset="0.49" stop-color="#282D76"/>
<stop offset="0.68" stop-color="#3C31A3"/>
</linearGradient>
<linearGradient id="paint4_linear_113_2" x1="9.6702e-05" y1="38.6371" x2="287" y2="38.6371" gradientUnits="userSpaceOnUse">
<stop offset="0.27" stop-color="#132946"/>
<stop offset="0.49" stop-color="#282D76"/>
<stop offset="0.68" stop-color="#3C31A3"/>
</linearGradient>
<linearGradient id="paint5_linear_113_2" x1="1.56734e-05" y1="38.6371" x2="287" y2="38.6371" gradientUnits="userSpaceOnUse">
<stop offset="0.27" stop-color="#132946"/>
<stop offset="0.49" stop-color="#282D76"/>
<stop offset="0.68" stop-color="#3C31A3"/>
</linearGradient>
<linearGradient id="paint6_linear_113_2" x1="2.18446e-05" y1="38.6371" x2="287" y2="38.6371" gradientUnits="userSpaceOnUse">
<stop offset="0.27" stop-color="#132946"/>
<stop offset="0.49" stop-color="#282D76"/>
<stop offset="0.68" stop-color="#3C31A3"/>
</linearGradient>
<linearGradient id="paint7_linear_113_2" x1="0.00101722" y1="38.6371" x2="286.999" y2="38.6371" gradientUnits="userSpaceOnUse">
<stop offset="0.27" stop-color="#132946"/>
<stop offset="0.49" stop-color="#282D76"/>
<stop offset="0.68" stop-color="#3C31A3"/>
</linearGradient>
<linearGradient id="paint8_linear_113_2" x1="0.00105988" y1="38.6371" x2="287" y2="38.6371" gradientUnits="userSpaceOnUse">
<stop offset="0.27" stop-color="#132946"/>
<stop offset="0.49" stop-color="#282D76"/>
<stop offset="0.68" stop-color="#3C31A3"/>
</linearGradient>
<linearGradient id="paint9_linear_113_2" x1="0.00115015" y1="38.6371" x2="287" y2="38.6371" gradientUnits="userSpaceOnUse">
<stop offset="0.27" stop-color="#132946"/>
<stop offset="0.49" stop-color="#282D76"/>
<stop offset="0.68" stop-color="#3C31A3"/>
</linearGradient>
<linearGradient id="paint10_linear_113_2" x1="8.69417e-06" y1="38.6371" x2="287" y2="38.6371" gradientUnits="userSpaceOnUse">
<stop offset="0.27" stop-color="#132946"/>
<stop offset="0.49" stop-color="#282D76"/>
<stop offset="0.68" stop-color="#3C31A3"/>
</linearGradient>
<linearGradient id="paint11_linear_113_2" x1="0.000326458" y1="38.6371" x2="287" y2="38.6371" gradientUnits="userSpaceOnUse">
<stop offset="0.27" stop-color="#132946"/>
<stop offset="0.49" stop-color="#282D76"/>
<stop offset="0.68" stop-color="#3C31A3"/>
</linearGradient>
<linearGradient id="paint12_linear_113_2" x1="0.0002217" y1="38.6372" x2="287" y2="38.6372" gradientUnits="userSpaceOnUse">
<stop offset="0.27" stop-color="#132946"/>
<stop offset="0.49" stop-color="#282D76"/>
<stop offset="0.68" stop-color="#3C31A3"/>
</linearGradient>
<linearGradient id="paint13_linear_113_2" x1="-0.000484054" y1="38.6371" x2="287" y2="38.6371" gradientUnits="userSpaceOnUse">
<stop offset="0.27" stop-color="#132946"/>
<stop offset="0.49" stop-color="#282D76"/>
<stop offset="0.68" stop-color="#3C31A3"/>
</linearGradient>
<linearGradient id="paint14_linear_113_2" x1="-0.000397091" y1="38.6371" x2="287" y2="38.6371" gradientUnits="userSpaceOnUse">
<stop offset="0.27" stop-color="#132946"/>
<stop offset="0.49" stop-color="#282D76"/>
<stop offset="0.68" stop-color="#3C31A3"/>
</linearGradient>
<linearGradient id="paint15_linear_113_2" x1="-1.52501e-06" y1="38.6371" x2="287" y2="38.6371" gradientUnits="userSpaceOnUse">
<stop offset="0.27" stop-color="#132946"/>
<stop offset="0.49" stop-color="#282D76"/>
<stop offset="0.68" stop-color="#3C31A3"/>
</linearGradient>
</defs>
</svg>
