<svg width="297" height="73" viewBox="0 0 297 73" fill="none" xmlns="http://www.w3.org/2000/svg">
<g clip-path="url(#clip0_6_7)">
<path fill-rule="evenodd" clip-rule="evenodd" d="M123.761 0.63833C123.336 1.00668 122.99 1.04594 122.583 0.771458C121.785 0.235204 118.251 1.64801 117.685 2.72875C117.363 3.34466 117.325 3.18835 117.538 2.1091L117.822 0.665628L115.8 0.952829C112.841 1.37315 111.983 1.41841 111.475 1.18094C110.818 0.874672 107.869 1.12933 107.243 1.5463C106.893 1.7789 106.641 1.73515 106.507 1.41803C106.344 1.03024 106.003 1.02463 104.785 1.38886C103.749 1.69813 102.995 1.72505 102.415 1.47375C101.765 1.19216 101.342 1.2849 100.626 1.86491C99.8444 2.49727 99.357 2.57991 97.7292 2.35704C96.6525 2.20932 95.5645 2.14463 95.3103 2.21307C95.0567 2.28113 93.7064 2.38882 92.3099 2.45202C88.2742 2.63489 88.155 2.6491 88.155 2.95013C88.155 3.10757 87.5005 3.15805 86.6999 3.06307C85.399 2.90825 85.2721 2.97481 85.5024 3.6887C85.6755 4.22495 85.5468 4.48747 85.111 4.48747C84.7541 4.48747 84.4618 4.23505 84.4618 3.92653C84.4618 3.55258 84.0003 3.3656 83.077 3.3656C82.2769 3.3656 81.692 3.56305 81.692 3.83304C81.6916 4.12174 80.977 4.31957 79.8219 4.3506C77.6942 4.40745 77.0207 4.74214 78.0123 5.24997C78.4721 5.48556 78.5053 5.59962 78.1142 5.60373C77.7971 5.60673 77.5372 5.86176 77.5372 6.17028C77.5372 6.47879 77.2256 6.73122 76.8447 6.73122C76.4639 6.73122 76.1523 6.47879 76.1523 6.17028C76.1523 5.86176 76.36 5.60934 76.6139 5.60934C76.8678 5.60934 77.0756 5.44106 77.0756 5.23538C77.0756 4.67146 75.825 4.78663 75.5457 5.37599C75.3971 5.68937 74.8703 5.824 74.1995 5.72003C73.1812 5.5626 73.1119 5.64935 73.2868 6.86285C73.4668 8.11153 74.6094 8.98582 75.192 8.32051C75.3393 8.15261 76.0313 7.98549 76.7294 7.94953C77.4273 7.91365 78.2587 7.86504 78.5759 7.84151C78.8936 7.8179 79.6202 7.91482 80.1917 8.05655C80.9672 8.24914 81.2304 8.16348 81.2304 7.71884C81.2304 7.23456 81.4506 7.19156 82.4145 7.48848C84.1964 8.03705 85.8468 7.94285 85.8468 7.29215C85.8468 6.94325 86.2826 6.73122 87.0009 6.73122C87.6754 6.73122 88.155 6.94624 88.155 7.24802C88.155 7.95629 91.8071 8.00117 92.1404 7.29701C92.2734 7.01654 92.9372 6.79591 93.6153 6.80638C95.9643 6.84303 96.465 6.7286 96.465 6.15382C96.465 5.83634 96.7249 5.60373 97.0419 5.63739C97.3589 5.67067 98.0938 5.67815 98.6735 5.65347C99.5769 5.6157 99.6587 5.50314 99.2399 4.87003C98.842 4.26646 98.881 4.17073 99.455 4.34874C99.8415 4.46915 100.158 4.80196 100.158 5.08842C100.158 5.37487 100.447 5.60934 100.801 5.60934C101.154 5.60934 101.563 5.85915 101.707 6.16429C102.093 6.97952 107.661 6.763 108.929 5.88345C109.904 5.20697 111.015 4.99343 110.577 5.56671C110.438 5.74883 110.847 5.97844 111.484 6.07754C112.122 6.17626 112.757 6.10857 112.896 5.92721C113.034 5.74546 113.341 5.69385 113.578 5.8124C113.814 5.93057 114.007 5.84905 114.007 5.63141C114.007 5.41376 114.435 5.23538 114.958 5.23538C115.481 5.23538 115.78 5.40366 115.622 5.60934C115.447 5.83933 116.103 5.96161 117.326 5.92721C118.653 5.88981 118.902 5.81988 118.072 5.71742C117.186 5.60785 116.906 5.39993 117.097 4.99418C117.246 4.68118 117.494 4.56525 117.649 4.73653C118.086 5.21931 119.922 5.9833 120.647 5.9833C121.004 5.9833 122.253 5.25147 123.423 4.35659C124.878 3.24294 125.548 2.92284 125.548 3.3413C125.548 3.6771 124.922 4.25225 124.156 4.61873C122.587 5.36926 122.719 5.9833 124.449 5.9833C125.186 5.9833 125.487 5.83147 125.282 5.56222C125.051 5.26044 125.193 5.2466 125.781 5.51323C126.821 5.98443 128.318 5.68413 128.318 5.00466C128.318 4.72045 128.526 4.48747 128.78 4.48747C129.034 4.48747 129.242 4.71185 129.242 4.98596C129.242 5.76828 134.679 5.6789 134.94 4.89247C135.101 4.40445 135.145 4.4153 135.189 4.95492C135.251 5.70881 136.188 5.81576 136.997 5.1606C137.417 4.82029 137.551 4.81842 137.551 5.15274C137.551 5.64188 145.659 5.62056 146.629 5.12918C146.925 4.97922 147.272 5.06823 147.401 5.32663C147.581 5.68526 147.747 5.66806 148.103 5.25334C148.359 4.95454 148.469 4.57797 148.345 4.41604C148.222 4.2545 148.443 4.22234 148.837 4.34462C149.232 4.46728 149.554 4.7657 149.554 5.00839C149.554 5.49043 150.435 5.60037 153.939 5.5555C155.209 5.53904 157.91 5.56409 159.941 5.61084C166.411 5.76005 166.81 5.74247 166.992 5.3012C167.116 5.00091 167.381 5.03906 167.859 5.42573C168.727 6.12952 171.586 6.1441 173.622 5.4549C174.967 4.99979 175.307 4.99979 176.075 5.4549C177.166 6.10109 178.118 6.16056 177.345 5.53455C176.591 4.92387 176.648 4.48747 177.483 4.48747C177.864 4.48747 178.176 4.73989 178.176 5.04841C178.176 5.35692 178.54 5.62318 178.983 5.63963C179.428 5.65646 180.415 5.70994 181.177 5.75855C181.938 5.80717 182.714 5.66731 182.901 5.44779C183.127 5.18079 183.242 5.20322 183.247 5.51585C183.251 5.77314 183.721 5.98068 184.292 5.97769C185.015 5.97358 185.149 5.87822 184.733 5.66394C184.251 5.41676 184.268 5.26642 184.816 4.8977C185.372 4.52412 185.591 4.57946 185.999 5.19724C186.299 5.65085 186.777 5.86924 187.191 5.74061C187.572 5.62243 188.139 5.69647 188.453 5.90514C189.383 6.52254 190.905 6.58088 191.723 6.0308C192.22 5.6976 192.486 5.66469 192.486 5.93767C192.486 6.38306 193.978 6.51993 194.473 6.11979C195.138 5.58167 198.447 5.61682 198.827 6.16616C199.229 6.74767 201.206 6.90847 204.16 6.59996C205.121 6.49936 206.523 6.56032 207.276 6.73495C208.028 6.90996 208.644 6.91744 208.644 6.75178C208.644 6.58612 209.164 6.45075 209.798 6.45075C210.433 6.45075 210.953 6.66241 210.953 6.92119C210.953 7.48324 212.691 7.92825 212.9 7.41967C212.98 7.22483 213.822 6.9238 214.769 6.75066C216.316 6.46832 216.492 6.51319 216.492 7.18632C216.492 7.85013 216.691 7.9062 218.224 7.67434C219.176 7.53036 219.793 7.54382 219.597 7.70425C219.079 8.12683 222.151 8.90319 222.799 8.5135C223.113 8.32463 223.459 8.35344 223.634 8.58269C223.798 8.79843 224.717 8.97495 225.675 8.97495C226.634 8.97495 227.568 9.0961 227.75 9.24419C228.267 9.66301 232.812 9.67163 233.458 9.25546C233.872 8.98807 234.035 9.05944 234.035 9.50863C234.035 10.0086 234.474 10.129 236.227 10.1092C237.433 10.0953 239.118 10.193 239.972 10.3261C240.975 10.4824 241.645 10.4087 241.867 10.1178C242.13 9.77259 242.361 9.78424 242.855 10.1671C243.79 10.893 245.893 11.5845 246.261 11.2871C246.835 10.8219 248.777 10.988 249.031 11.5242C249.227 11.9389 249.422 11.9558 249.946 11.6027C250.613 11.1552 251.775 11.4049 251.389 11.912C251.209 12.1473 252.512 12.1992 254.232 12.025C254.55 11.9928 254.826 11.6719 254.845 11.3122C254.875 10.789 254.935 10.7704 255.151 11.2187C255.299 11.5272 255.73 11.9644 256.108 12.1902C256.487 12.4161 256.66 12.7793 256.495 12.9969C256.307 13.2418 256.528 13.3219 257.073 13.2063C257.557 13.1038 258.709 13.3102 259.631 13.6647C260.555 14.0196 262.34 14.3102 263.599 14.3102C264.858 14.3102 265.888 14.4561 265.888 14.6341C265.888 14.8125 266.2 14.9583 266.581 14.9583C266.962 14.9583 267.273 14.772 267.273 14.5443C267.273 14.3165 267.585 14.2272 267.965 14.3457C268.347 14.4639 268.658 14.3977 268.658 14.1988C268.658 13.6038 269.922 13.7889 270.224 14.428C270.638 15.3023 270.609 15.3322 269.318 15.3322C268.19 15.3322 268.17 15.3644 268.934 15.9833C269.507 16.447 269.792 16.5019 269.928 16.174C270.057 15.861 270.603 16.0139 271.635 16.6519C272.596 17.2454 273.448 17.4986 273.953 17.3415C274.426 17.1945 274.916 17.306 275.152 17.6149C275.372 17.9021 275.923 18.1373 276.376 18.1373C276.829 18.1377 277.225 18.3482 277.256 18.6047C277.289 18.8616 277.34 19.2131 277.371 19.3855C277.533 20.2625 281.585 20.9595 281.585 20.1102C281.585 19.859 281.908 20.0276 282.303 20.485C282.699 20.9427 282.91 21.4659 282.771 21.6476C282.434 22.0889 283.368 22.6513 284.944 22.9565C285.708 23.1046 286.734 23.8001 287.484 24.6767C288.175 25.4863 288.995 26.155 289.308 26.1628C289.621 26.1706 290.018 26.634 290.191 27.193C290.364 27.7517 290.889 28.5415 291.356 28.9484C291.934 29.4506 292.099 29.9349 291.869 30.4569C291.683 30.8795 291.576 31.8884 291.631 32.6984C291.687 33.5088 291.423 34.5544 291.044 35.0226C290.665 35.4907 290.356 36.1317 290.356 36.4477C290.356 36.7633 290.147 36.9795 289.893 36.9283C289.639 36.8766 289.168 37.2555 288.847 37.7696C288.525 38.2838 287.798 38.8706 287.231 39.0736C286.665 39.2767 286.2 39.7311 286.2 40.0834C286.2 40.4359 285.907 40.8586 285.548 41.0231C285.189 41.1876 284.826 41.8271 284.74 42.4441C284.628 43.2612 284.333 43.5765 283.655 43.6041C282.436 43.6542 280.254 44.594 278.825 45.6845C278.197 46.1647 277.627 46.5203 277.561 46.4743C277.219 46.2401 272.931 47.8014 272.012 48.4944C271.691 48.7367 271.428 49.135 271.428 49.3791C271.428 49.6335 271.049 49.7431 270.54 49.6353C270.052 49.5321 269.009 49.7647 268.221 50.1529C267.433 50.5407 266.49 50.8582 266.124 50.8582C265.758 50.8582 264.691 51.4049 263.751 52.0728C262.812 52.741 261.662 53.235 261.196 53.1711C260.599 53.0892 260.349 53.2851 260.349 53.8334C260.349 54.4901 260.156 54.5727 259.119 54.3618C258.101 54.155 257.939 54.2182 258.181 54.7286C258.376 55.1411 258.232 55.3456 257.746 55.3456C257.289 55.3456 257.117 55.137 257.284 54.7847C257.465 54.4032 257.259 54.2238 256.641 54.2238C256.142 54.2238 255.732 54.364 255.732 54.5353C255.732 54.7069 255.472 54.8756 255.155 54.9108C250.082 55.4713 247.524 56.2626 247.334 57.3313C247.206 58.0572 247.125 58.0793 246.52 57.5513C245.833 56.9533 245.809 56.9551 241.805 57.945C240.874 58.1754 239.332 58.4447 238.382 58.543C237.431 58.6417 236.413 58.8833 236.121 59.0796C235.828 59.2759 234.357 59.547 232.85 59.6821C231.331 59.8181 229.14 60.3466 227.93 60.8693C226.179 61.6255 225.617 61.7216 225.075 61.357C224.581 61.0253 224.151 61.0108 223.477 61.3032C222.97 61.5231 221.846 61.7029 220.979 61.7029C220.113 61.7029 218.76 61.9632 217.972 62.2814C217.091 62.6378 214.734 62.9307 211.837 63.0436C209.25 63.1445 206.774 63.3827 206.336 63.5731C205.897 63.7631 204.108 63.9459 202.36 63.9796C200.611 64.0132 198.345 64.2656 197.323 64.5409C196.302 64.8158 194.12 65.0711 192.476 65.1086C190.383 65.1564 189.161 65.3815 188.402 65.8602C187.459 66.4537 187.23 66.4731 186.655 66.0071C186.173 65.6168 185.687 65.5648 184.869 65.8164C184.251 66.0068 182.961 66.1493 182 66.1332C181.039 66.1171 180.046 66.1403 179.792 66.1848C179.537 66.2296 178.676 66.2376 177.876 66.2028C177.077 66.168 176.286 66.3194 176.118 66.539C175.951 66.7584 175.332 66.9383 174.743 66.9383C174.154 66.9383 173.418 67.1859 173.108 67.4888C172.644 67.9427 172.439 67.9532 171.939 67.5494C171.19 66.9417 165.901 67.0931 164.924 67.7502C164.4 68.1021 164.174 68.092 163.877 67.7023C163.594 67.331 162.203 67.2218 158.369 67.2697C152.761 67.3396 150.946 67.6896 150.925 68.7053C150.911 69.32 150.874 69.3175 150.41 68.6698C150.003 68.104 149.83 68.0684 149.5 68.4828C149.18 68.8847 149.036 68.8309 148.833 68.2315C148.656 67.7132 148.137 67.4409 147.217 67.384C146.47 67.3381 145.86 67.4491 145.86 67.6312C145.86 67.8134 145.238 67.9031 144.476 67.8314C143.714 67.7595 143.091 67.8534 143.091 68.04C143.091 68.525 141.677 68.7098 140.283 68.4072C139.385 68.2124 138.956 68.3227 138.548 68.8522C138.249 69.2393 137.654 69.556 137.224 69.556C136.617 69.556 136.567 69.4562 136.997 69.1072C138.172 68.1559 137.532 67.8736 134.312 67.9207C132.531 67.9465 130.965 67.8269 130.832 67.6541C130.482 67.1941 128.394 68.0636 128.162 68.7666C128.002 69.252 127.953 69.2355 127.91 68.6817C127.862 68.0681 127.473 68.0049 124.278 68.0949C122.312 68.1503 120.241 68.3272 119.679 68.4876C119.076 68.6596 118.535 68.6212 118.362 68.3945C118.2 68.1825 117.752 68.1077 117.364 68.2281C116.977 68.3485 116.427 68.3003 116.141 68.1208C114.644 67.1784 112.664 67.5105 112.041 68.8081C111.827 69.2539 111.764 69.2333 111.736 68.7086C111.709 68.2408 111.329 68.0527 110.43 68.064C109.731 68.0722 108.647 68.0329 108.02 67.9761C106.764 67.8627 106.073 69.0505 107.096 69.5628C107.407 69.7187 107.52 70.0336 107.345 70.262C106.888 70.8623 106.159 70.7733 106.159 70.117C106.159 69.8084 105.944 69.556 105.682 69.556C105.366 69.556 105.379 69.2901 105.722 68.7696C106.223 68.0119 106.157 67.9884 103.892 68.1151C102.129 68.2142 101.543 68.1189 101.543 67.7341C101.543 67.3201 101.408 67.3108 100.851 67.6862C100.43 67.9686 100.158 67.9985 100.158 67.7622C100.158 67.534 98.9619 67.3706 97.2722 67.368C95.6854 67.3654 92.068 67.307 89.2339 67.2386C86.3994 67.1706 84.1766 67.2412 84.2948 67.396C84.581 67.7707 83.1157 67.3212 81.7622 66.6186C80.976 66.211 80.4686 66.1624 79.9156 66.4417C79.4904 66.6568 78.7444 66.6979 78.2297 66.5352C76.8697 66.1048 73.4092 66.1365 71.3567 66.5984C70.0041 66.9024 69.4773 66.8916 69.2197 66.5543C69.0254 66.2992 67.7097 66.0838 66.1673 66.0547C63.9214 66.0124 63.2793 66.1474 62.4184 66.8449C61.1262 67.8916 60.2366 67.9614 61.0122 66.9551C61.6659 66.1074 61.1631 65.4683 60.3562 66.122C59.5608 66.7663 58.8558 66.6646 59.5331 66.0034C59.8493 65.695 60.0303 65.4339 59.9356 65.4235C59.8414 65.4134 58.4506 65.3112 56.8453 65.1968C54.2283 65.0102 53.8045 65.0793 52.7409 65.8699L51.5549 66.7514L51.8596 65.723C52.1916 64.6026 52.222 64.6156 49.0306 64.5061C47.9513 64.4687 47.0687 64.5921 47.0687 64.7802C47.0687 64.9683 46.7423 64.8576 46.3434 64.5342C45.9441 64.211 45.2517 63.9467 44.8043 63.9467C44.3569 63.9467 43.8583 63.839 43.6958 63.7077C43.5338 63.5761 42.6161 63.4257 41.6573 63.3738C37.2287 63.1322 34.402 62.7803 33.836 62.4C33.379 62.0926 33.0268 62.1146 32.4769 62.4845C31.8482 62.9071 31.6433 62.8824 31.1386 62.3233C30.6909 61.8274 30.4822 61.7845 30.3003 62.1506C30.1101 62.5327 29.9712 62.5383 29.655 62.1771C29.4329 61.924 28.7685 61.7919 28.1786 61.8839C27.5882 61.9763 25.9438 61.7209 24.5237 61.3167C23.1042 60.912 21.5711 60.6767 21.1177 60.7935C20.6123 60.9232 20.2904 60.8148 20.2863 60.5127C20.2808 60.1499 20.1584 60.1678 19.8209 60.5811C19.429 61.0612 19.2471 61.023 18.5589 60.3174C18.1161 59.8642 16.5599 59.1256 15.0997 58.6761C13.6395 58.227 12.4453 57.7484 12.4453 57.6126C12.4453 57.4769 11.7182 57.4342 10.8296 57.5183C9.34394 57.659 9.21376 57.5916 9.21376 56.6859C9.21376 55.8853 8.94831 55.6579 7.79374 55.4709C6.7915 55.3086 6.02148 54.7888 5.17621 53.704C4.51744 52.8584 4.02763 52.1098 4.08765 52.0395C4.14813 51.9692 3.89653 51.7168 3.5286 51.4786C3.16113 51.2403 2.73041 50.0796 2.57114 48.8997C2.31724 47.0128 2.39388 46.6979 3.20914 46.2854C3.71879 46.0277 4.13566 45.4365 4.13566 44.9717C4.13566 44.5072 4.33371 44.1269 4.57561 44.1269C4.81751 44.1269 5.36087 43.538 5.78235 42.8181C6.20383 42.0982 6.83721 41.5093 7.18898 41.5093C7.54075 41.5093 7.82882 41.2972 7.82882 41.0384C7.82882 40.7793 8.2443 40.357 8.75211 40.1001C9.25992 39.8432 9.67544 39.3175 9.67544 38.9319C9.67544 38.5318 10.096 38.1417 10.6559 38.0232C11.4444 37.856 11.5783 37.6283 11.3396 36.8575C11.0497 35.9227 11.6438 35.5263 12.2144 36.2738C12.3714 36.4795 12.6729 36.6478 12.8848 36.6478C13.4586 36.6478 13.8828 35.5226 13.4969 35.0248C13.3123 34.7862 13.2204 34.2967 13.2938 33.9366C13.3667 33.5769 13.1936 33.2822 12.9087 33.2822C12.6239 33.2822 12.5154 33.4456 12.6678 33.6453C12.8201 33.845 12.4245 34.1138 11.7883 34.2433C11.1522 34.3727 10.5064 34.7982 10.3531 35.1889C10.2003 35.5801 9.88134 35.8998 9.6445 35.8998C9.40765 35.8998 9.21376 36.1048 9.21376 36.3554C9.21376 36.6059 8.66117 37.1957 7.98624 37.6657C7.31085 38.1354 6.53068 38.8983 6.25276 39.3601C5.97486 39.8223 5.07741 40.4528 4.25892 40.7613C3.43904 41.0702 2.76642 41.6109 2.76088 41.9651C2.75442 42.3813 2.50652 42.5317 2.05826 42.3925C1.255 42.1427 1.18575 42.5724 1.81266 43.909C2.1829 44.6968 2.10073 44.9302 1.33809 45.2608C0.831206 45.4806 0.544063 45.8273 0.700099 46.0319C0.856135 46.236 0.718565 46.662 0.39449 46.9784C-0.0436112 47.4062 -0.0648466 47.7214 0.312317 48.2109C0.623004 48.6133 0.659474 49.0729 0.407416 49.3956C-0.153944 50.114 -0.128554 51.98 0.442501 51.98C0.696406 51.98 0.920766 52.443 0.940616 53.0084C0.960471 53.5738 1.08188 53.8266 1.20975 53.5693C1.51213 52.9632 2.20137 52.9632 2.13581 53.5693C2.05041 54.3584 3.80789 56.8414 4.45189 56.8414C4.78566 56.8414 5.05895 57.0782 5.05895 57.3673C5.05895 57.6975 5.38118 57.825 5.92361 57.7101C6.51544 57.5849 7.10727 57.8904 7.80158 58.6802C8.35879 59.3144 9.21653 59.8331 9.70676 59.8331C10.1975 59.8331 10.5987 60.0855 10.5987 60.3941C10.5987 60.7026 10.9103 60.955 11.2911 60.955C11.672 60.955 11.9837 61.1375 11.9837 61.36C11.9837 61.5829 12.2435 61.688 12.5607 61.5938C12.8783 61.4995 13.0884 61.2392 13.0278 61.0152C12.9674 60.7912 13.2273 60.7041 13.6049 60.8215C13.9825 60.9389 14.2919 61.2504 14.2919 61.5133C14.2919 61.98 16.9292 63.1987 17.9393 63.1987C18.2186 63.1987 18.4466 63.3416 18.4466 63.5159C18.4466 63.6901 19.0906 63.8476 19.8782 63.8659C20.6653 63.8839 21.6796 64.1703 22.1319 64.502C22.6841 64.9066 23.3516 65.024 24.1628 64.8591C24.8718 64.7151 25.3713 64.7705 25.3713 64.993C25.3713 65.2017 25.7868 65.2843 26.2946 65.177C27.3366 64.9559 27.5055 64.4769 26.6409 64.1943C26.3237 64.0907 26.5314 63.9923 27.1025 63.9762C27.7031 63.959 28.1412 64.1677 28.1412 64.471C28.1412 65.0954 30.7121 65.9859 32.1806 65.8699C32.7517 65.825 33.2193 65.9447 33.2193 66.1362C33.2193 66.7147 34.6781 66.9802 35.3554 66.5251C35.8461 66.1949 35.9892 66.2289 35.9892 66.6758C35.9892 67.1119 36.6941 67.3041 38.8744 67.4626C40.4616 67.5781 42.3515 67.6545 43.0754 67.6328C44.2609 67.5968 44.3657 67.4895 44.134 66.5513C43.953 65.8187 44.0874 65.4447 44.5873 65.2892C45.6657 64.9541 45.8079 65.0147 45.4953 65.6748C45.2747 66.1406 45.4234 66.2349 46.1385 66.0835C47.3239 65.8326 47.3331 66.2446 46.1578 66.9308C45.3191 67.4207 45.3056 67.515 45.9852 68.1234C46.5059 68.5893 46.9514 68.6851 47.498 68.4484C47.937 68.2576 48.5519 68.2524 48.918 68.4356C49.273 68.6132 49.712 68.6847 49.893 68.5938C50.0744 68.503 50.8112 68.6118 51.5309 68.8358C52.2506 69.0598 53.8779 69.3182 55.1475 69.4106C56.417 69.5025 57.8453 69.6753 58.3213 69.7942C58.8849 69.9349 59.0769 69.8657 58.8711 69.596C58.3974 68.9753 59.3332 69.0975 59.9947 69.743C60.8063 70.5354 61.3796 70.4389 61.3796 69.5104C61.3796 68.9296 61.5348 68.8148 61.9567 69.0818C62.2743 69.2831 63.2091 69.6316 64.0341 69.8563C65.4421 70.24 65.5345 70.2112 65.5345 69.3933C65.5345 68.8361 65.8673 68.4509 66.4563 68.3261C67.1816 68.1724 67.2933 68.2535 66.9803 68.7067C66.2833 69.7153 67.9576 70.6364 70.4708 70.6274C71.6914 70.6229 73.574 70.7834 74.6547 70.9834C75.8019 71.1958 76.7257 71.2082 76.8747 71.0126C77.0151 70.8286 76.9099 70.6779 76.6411 70.6779C76.3725 70.6779 76.1523 70.5467 76.1523 70.3858C76.1523 69.924 78.7666 69.2471 79.3746 69.5515C79.7347 69.7318 79.5528 69.9106 78.846 70.0717L77.768 70.317L78.8187 71.0328C80.1529 71.9415 86.6686 72.075 87.0822 71.2022C87.4122 70.5055 88.155 70.5309 88.155 71.2388C88.155 71.5836 88.5876 71.7998 89.2782 71.7998C90.2233 71.7998 90.3954 71.6244 90.3626 70.6966C90.3344 69.8904 90.0736 69.5631 89.3941 69.4812C88.5835 69.3832 88.5534 69.3096 89.1619 68.9038C89.7519 68.51 90.0298 68.7071 90.9692 70.1872L92.079 71.9359L92.3408 70.8394C92.4848 70.2363 92.4414 69.3724 92.2452 68.9195C91.9682 68.2816 92.0393 68.1432 92.5605 68.3052C92.9303 68.42 93.2364 68.7064 93.2401 68.9416C93.2442 69.1974 93.4091 69.1618 93.6505 68.8538C94.2173 68.1287 95.1757 68.7213 94.8365 69.5874C94.6823 69.9816 94.7635 70.304 95.0174 70.304C95.2713 70.304 95.6111 70.6405 95.772 71.0518C95.9329 71.4632 96.3622 71.7998 96.7268 71.7998C97.0904 71.7998 97.3884 71.9681 97.3884 72.1737C97.3884 72.6722 99.06 72.6498 100.247 72.1352C100.978 71.8185 101.29 71.8402 101.595 72.2287C101.901 72.6217 101.992 72.5888 101.998 72.0802C102.006 71.3002 103.255 71.2213 104.277 71.9362C104.677 72.2167 105.784 72.5428 106.736 72.6606C108.086 72.8274 108.468 72.7507 108.468 72.3121C108.468 71.7478 109.589 71.8476 111.213 72.5556C111.581 72.7159 112.353 72.7021 112.928 72.5245C113.556 72.3311 114.084 72.3461 114.249 72.5619C114.652 73.0895 117.59 73.0009 117.818 72.4542C117.958 72.1169 118.193 72.0967 118.664 72.3817C119.023 72.5993 120.51 72.8192 121.968 72.8708C124.314 72.9534 124.75 72.8514 125.74 71.9848L126.862 71.0055L127.012 71.8701C127.155 72.6823 127.346 72.7298 130.165 72.6535C131.815 72.609 133.373 72.5552 133.627 72.5335C133.881 72.5121 136.925 72.6109 140.392 72.7523C146.306 72.9938 146.709 72.9669 146.917 72.3113C147.113 71.6947 147.145 71.6894 147.192 72.2672C147.24 72.851 147.755 73.0873 148.727 72.9713C149.429 72.8872 162.785 72.4677 163.98 72.492C164.678 72.5062 165.25 72.3603 165.25 72.1677C165.25 71.9561 165.675 71.949 166.327 72.1502C166.92 72.3327 167.68 72.3439 168.017 72.1753C168.356 72.005 168.975 72.0432 169.405 72.2608C169.888 72.5047 170.864 72.5387 171.986 72.3506C172.978 72.1842 173.979 72.0851 174.21 72.1304C174.44 72.176 174.777 72.0185 174.959 71.7811C175.207 71.4546 175.532 71.4543 176.28 71.7784C176.825 72.0148 177.46 72.1135 177.692 71.998C177.923 71.8824 179.413 71.7055 181.003 71.6057C182.593 71.5054 184.028 71.2475 184.192 71.032C184.357 70.8166 184.887 70.6465 185.373 70.6543C186.587 70.6734 187.948 70.6715 188.909 70.6499C189.353 70.6398 189.717 70.3895 189.717 70.0938C189.717 69.7979 190.029 69.556 190.409 69.556C190.79 69.556 191.102 69.7243 191.102 69.93C191.102 70.1357 191.4 70.304 191.765 70.304C192.238 70.304 192.422 69.8668 192.404 68.7902C192.389 67.9573 192.505 67.172 192.663 67.0449C192.821 66.9178 192.948 67.2543 192.948 67.7932C192.948 68.8874 193.831 70.6779 194.37 70.6779C195.235 70.6779 196.18 70.1802 196.18 69.725C196.18 68.8829 197.21 68.6563 197.844 69.3589C198.555 70.1469 200.107 69.841 199.705 68.9921C199.551 68.666 199.701 68.4342 200.069 68.4342C200.415 68.4342 200.818 68.6866 200.963 68.9951C201.109 69.3036 201.703 69.5365 202.283 69.5126C203.064 69.4805 203.127 69.4252 202.527 69.2984C201.59 69.0998 201.433 68.4342 202.324 68.4342C202.657 68.4342 203.331 68.6727 203.823 68.964C204.455 69.3384 204.888 69.3799 205.296 69.1054C205.703 68.8317 205.874 68.8459 205.874 69.1533C205.874 69.4431 206.379 69.5134 207.375 69.3627C208.978 69.12 209.52 69.0452 214.185 68.4259C215.834 68.2064 217.6 67.8725 218.108 67.6829C218.616 67.4936 219.551 67.3564 220.186 67.3781C221.835 67.4349 224.956 66.9361 225.472 66.533C225.712 66.3445 226.304 66.1904 226.785 66.1904C227.266 66.1904 228.212 65.8763 228.886 65.4919C229.72 65.0162 230.405 64.8887 231.035 65.0917C232.495 65.5633 233.106 65.4911 232.818 64.8815C232.648 64.5263 232.823 64.3206 233.293 64.3206C233.701 64.3206 234.035 64.4889 234.035 64.6945C234.035 64.9003 234.346 65.0686 234.727 65.0686C235.546 65.0686 235.553 65.0274 234.97 63.784C234.677 63.1606 234.677 62.8248 234.97 62.8248C235.217 62.8248 235.42 63.0772 235.42 63.3857C235.42 63.6942 235.818 63.9467 236.304 63.9467C236.792 63.9467 237.258 64.1097 237.344 64.309C237.433 64.5214 238.378 64.4149 239.622 64.0518C241.229 63.5825 241.875 63.155 242.275 62.296L242.804 61.1607L243.508 61.9733C244.176 62.747 244.301 62.7601 246.096 62.247C247.133 61.9505 248.138 61.786 248.328 61.8813C248.519 61.9763 248.58 61.6584 248.466 61.1745C248.262 60.3103 249.292 59.3276 249.605 60.0878C249.692 60.3009 250.034 60.7737 250.363 61.1386C250.892 61.7242 251.174 61.7485 252.77 61.3458C253.765 61.0949 255.459 60.5679 256.535 60.1745C257.611 59.7812 258.81 59.4592 259.199 59.4592C259.588 59.4592 260.728 59.0384 261.733 58.5243C262.739 58.0101 263.863 57.5894 264.231 57.5894C264.598 57.5894 265.173 57.3789 265.509 57.122C265.845 56.8651 266.816 56.6092 267.669 56.5543C268.521 56.499 269.658 56.2046 270.196 55.8998C270.733 55.5951 271.541 55.3456 271.993 55.3456C272.444 55.3456 272.814 55.0933 272.814 54.7847C272.814 54.4702 273.225 54.2238 273.75 54.2238C274.267 54.2238 274.809 53.9714 274.954 53.6628C275.101 53.3543 275.723 53.1019 276.337 53.1019C277.102 53.1019 277.59 52.8084 277.891 52.167C278.32 51.2523 279.276 50.8652 279.276 51.6061C279.276 52.1591 280.166 52.06 280.958 51.4191C281.339 51.1106 282.001 50.8582 282.431 50.8582C282.861 50.8582 283.417 50.4932 283.667 50.0474C283.919 49.6013 284.537 49.0546 285.044 48.832C285.549 48.6095 286.422 48.049 286.983 47.5861C287.545 47.1234 288.169 46.7375 288.372 46.7289C288.575 46.7199 289.259 46.1845 289.894 45.5383C290.529 44.892 291.621 43.9224 292.321 43.3839C294.02 42.0769 296.718 37.6874 295.426 38.3347C294.492 38.8025 294.819 37.0348 296.01 35.1823C296.727 34.0675 297.15 33.0578 296.95 32.9385C296.751 32.8189 296.587 31.5571 296.587 30.1345C296.586 28.4006 296.396 27.4963 296.01 27.392C295.693 27.3063 295.434 27.0161 295.434 26.7469C295.434 26.4772 295.142 26.1661 294.785 26.0555C294.428 25.9444 293.997 25.3393 293.825 24.7107C293.656 24.0821 293.325 23.4718 293.089 23.3544C292.855 23.2373 292.656 22.7725 292.647 22.3218C292.638 21.8713 292.171 21.0751 291.608 20.5527C290.209 19.2516 287.124 17.4485 287.124 17.9309C287.124 18.147 286.812 18.3239 286.432 18.3239C286.051 18.3239 285.739 18.1825 285.739 18.0102C285.739 17.8374 285.22 17.5041 284.585 17.2701C283.95 17.0356 283.426 16.5461 283.419 16.1815C283.407 15.5046 280.784 14.2104 279.424 14.2104C279.017 14.2104 278.39 13.9157 278.028 13.5559C277.577 13.1061 277.299 13.0403 277.141 13.3458C276.985 13.6464 276.609 13.5454 275.976 13.0327C275.327 12.507 274.701 12.3451 273.927 12.5021C273.303 12.6293 272.814 12.5634 272.814 12.3525C272.814 11.7423 269.502 10.2337 267.504 9.93342C266.489 9.78082 265.445 9.51344 265.185 9.33956C264.228 8.70011 259.406 7.59767 256.036 7.2484C254.98 7.1392 253.442 6.90735 252.617 6.73346C251.6 6.51955 251.115 6.54947 251.115 6.82657C251.115 7.05132 250.648 6.88566 250.077 6.45785C249.425 5.96984 248.179 5.61159 246.73 5.49529C245.461 5.3932 243.383 5.12132 242.114 4.8906C240.844 4.66024 238.602 4.40595 237.132 4.32517C235.661 4.24477 234.206 4.01704 233.9 3.81921C233.593 3.62138 231.888 3.44413 230.111 3.42506C226.926 3.39103 226.169 3.31436 224.802 2.88918C223.559 2.50288 219.262 2.34507 219.262 2.68575C219.262 2.86861 218.879 2.85178 218.409 2.64835C217.823 2.39406 217.392 2.41313 217.025 2.71006C216.622 3.03577 216.492 3.01371 216.492 2.62105C216.492 2.24223 216.334 2.27588 215.911 2.74446C215.255 3.47069 213.397 3.4015 212.808 2.62927C212.556 2.29833 211.95 2.21307 210.977 2.37087C209.988 2.53093 209.621 2.4767 209.831 2.20073C210.026 1.94643 209.746 1.96625 209.083 2.25382C208.207 2.63339 207.935 2.61245 207.502 2.13304C207.033 1.61324 206.925 1.6181 206.454 2.17904C205.968 2.75904 205.927 2.7568 205.902 2.15024C205.887 1.79049 205.822 1.48048 205.759 1.46179C205.696 1.44346 203.579 1.35371 201.057 1.26284C198.533 1.1716 196.214 0.926277 195.904 0.717609C195.517 0.457334 195.237 0.471919 195.015 0.763232C194.802 1.04071 194.106 1.09456 193.011 0.917673C190.152 0.455464 188.332 0.493234 188.332 1.0149C188.332 1.27929 188.125 1.49582 187.871 1.49582C187.616 1.49582 187.461 1.30659 187.524 1.07511C187.588 0.843632 187.12 0.608787 186.486 0.553068C185.851 0.497348 184.864 0.330563 184.292 0.182102C183.506 -0.021705 183.254 0.0598177 183.254 0.517167C183.254 0.849992 183.496 1.12186 183.793 1.12186C184.089 1.12186 184.176 1.24788 183.986 1.40158C183.795 1.55565 183.378 1.39223 183.06 1.03846C182.27 0.164152 180.119 0.102823 178.238 0.900852C177.015 1.41952 176.573 1.46179 176.161 1.09867C175.765 0.751264 175.778 0.703025 176.214 0.90197C176.568 1.06389 176.791 0.940862 176.791 0.582984C176.791 0.262503 176.526 -1.52588e-05 176.201 -1.52588e-05C175.483 -1.52588e-05 173.541 1.01865 172.751 1.80882C172.25 2.31141 172.174 2.27664 172.174 1.54219C172.174 0.867567 171.989 0.745282 171.251 0.934874C170.593 1.10391 170.328 1.00219 170.328 0.580367C170.328 0.14695 169.925 0.00708978 168.827 0.0586959C168.002 0.0979616 166.991 0.262877 166.58 0.425548C166.169 0.58822 165.707 0.619631 165.553 0.495103C165.399 0.370202 163.368 0.220245 161.039 0.161534C157.836 0.0811328 156.54 0.194816 155.723 0.62898C154.815 1.11064 154.602 1.11924 154.395 0.682831C154.136 0.136479 152.44 0.0407458 151.485 0.518663C151.176 0.673107 151.023 0.928894 151.143 1.08671C151.263 1.24451 151.078 1.70224 150.731 2.10312C150.193 2.72539 148.657 2.95499 147.245 2.62442C146.855 2.53317 149.296 1.74786 149.726 1.82676C149.948 1.86715 149.999 1.62744 149.841 1.29351C149.683 0.959935 149.554 0.531004 149.554 0.341034C149.554 0.140219 148.053 0.0871165 145.976 0.214262C141.757 0.472293 141.832 0.47304 140.206 0.158542C139.234 -0.029558 138.936 0.0497208 138.936 0.495103C138.936 1.01117 138.791 1.0164 137.666 0.541101C135.928 -0.193351 132.474 -0.145858 131.105 0.631224C130.315 1.07885 129.938 1.13308 129.809 0.818206C129.541 0.166395 127.146 0.276713 126.433 0.973393C125.874 1.51863 125.752 1.50703 125.09 0.844758C124.472 0.225855 124.273 0.194816 123.761 0.63833ZM129.703 1.68279C129.703 1.99131 129.496 2.26467 129.242 2.29047C128.987 2.31628 128.565 2.35816 128.301 2.38396C128.038 2.40976 127.625 2.68312 127.385 2.99164C126.765 3.78705 126.787 2.7897 127.411 1.84509C127.974 0.993212 129.703 0.870929 129.703 1.68279ZM105.236 2.40864C105.236 2.49951 105.029 2.67752 104.774 2.80466C104.52 2.93181 104.313 2.85739 104.313 2.63975C104.313 2.4221 104.52 2.24373 104.774 2.24373C105.029 2.24373 105.236 2.31777 105.236 2.40864ZM91.6377 4.46092C91.1839 5.05589 90.4527 4.57124 90.7754 3.88951C90.9531 3.51443 91.2047 3.44263 91.5002 3.68197C91.749 3.88353 91.8108 4.23393 91.6377 4.46092ZM204.489 3.92653C204.489 4.23505 204.185 4.48747 203.811 4.48747C203.398 4.48747 203.237 4.26833 203.399 3.92653C203.546 3.61802 203.851 3.3656 204.077 3.3656C204.304 3.3656 204.489 3.61802 204.489 3.92653ZM209.304 3.64606C209.075 3.80051 208.731 4.09482 208.542 4.30049C208.345 4.51402 208.194 4.39361 208.189 4.02003C208.186 3.65617 208.524 3.3656 208.952 3.3656C209.375 3.3656 209.533 3.49162 209.304 3.64606ZM89.54 4.48747C89.54 4.69315 89.3323 4.86143 89.0783 4.86143C88.8244 4.86143 88.6167 4.69315 88.6167 4.48747C88.6167 4.28179 88.8244 4.11351 89.0783 4.11351C89.3323 4.11351 89.54 4.28179 89.54 4.48747ZM104.188 4.33939C104.035 4.46354 103.636 4.477 103.303 4.36893C102.934 4.24963 103.044 4.16101 103.582 4.14305C104.068 4.12698 104.341 4.21523 104.188 4.33939ZM216.492 4.88985C216.492 5.06673 216.181 5.11497 215.8 4.9968C215.419 4.87826 215.107 4.63631 215.107 4.45905C215.107 4.28217 215.419 4.23393 215.8 4.3521C216.181 4.47065 216.492 4.71259 216.492 4.88985ZM226.187 4.48747C226.187 4.69315 225.823 4.85881 225.379 4.85582C224.688 4.85096 224.672 4.79711 225.264 4.48747C226.135 4.03124 226.187 4.03124 226.187 4.48747ZM80.9995 5.23538C81.1565 5.44106 81.0646 5.60934 80.796 5.60934C80.5273 5.60934 80.3071 5.44106 80.3071 5.23538C80.3071 5.02971 80.3985 4.86143 80.5107 4.86143C80.6228 4.86143 80.8426 5.02971 80.9995 5.23538ZM201.72 5.23538C201.72 5.44106 201.499 5.60934 201.231 5.60934C200.962 5.60934 200.87 5.44106 201.027 5.23538C201.184 5.02971 201.404 4.86143 201.516 4.86143C201.629 4.86143 201.72 5.02971 201.72 5.23538ZM213.24 6.14971C213.66 6.55956 213.678 6.73122 213.303 6.73122C213.01 6.73122 212.65 6.47879 212.504 6.17028C212.359 5.86176 211.949 5.60934 211.595 5.60934C211.242 5.60934 210.953 5.43508 210.953 5.2223C210.953 4.73802 212.391 5.32102 213.24 6.14971ZM207.135 5.46126C206.981 5.58541 206.583 5.59887 206.25 5.4908C205.882 5.3715 205.99 5.28288 206.528 5.26493C207.016 5.24885 207.288 5.3371 207.135 5.46126ZM71.8437 6.60669C71.2422 7.09358 71.5482 7.85308 72.3437 7.84749C72.9826 7.84298 73.0186 7.7734 72.5154 7.51503C72.1655 7.33553 72.0219 7.00159 72.1964 6.7731C72.5455 6.31574 72.3289 6.21366 71.8437 6.60669ZM224.215 7.705C224.062 7.82916 223.664 7.84259 223.331 7.73454C222.962 7.61525 223.072 7.52662 223.61 7.50867C224.096 7.49259 224.368 7.58084 224.215 7.705ZM225.726 8.22701C225.726 8.43273 225.517 8.60102 225.264 8.60102C225.01 8.60102 224.802 8.43273 224.802 8.22701C224.802 8.02137 225.01 7.85308 225.264 7.85308C225.517 7.85308 225.726 8.02137 225.726 8.22701ZM230.803 8.41401C230.803 8.72256 230.596 8.97495 230.342 8.97495C230.087 8.97495 229.88 8.72256 229.88 8.41401C229.88 8.10547 230.087 7.85308 230.342 7.85308C230.596 7.85308 230.803 8.10547 230.803 8.41401ZM243.729 9.18401C243.729 9.50451 243.522 9.66301 243.268 9.53588C243.014 9.40876 242.806 9.14658 242.806 8.95289C242.806 8.75921 243.014 8.60102 243.268 8.60102C243.522 8.60102 243.729 8.86351 243.729 9.18401ZM260.811 12.5276C260.811 12.836 260.499 13.0885 260.118 13.0885C259.737 13.0885 259.426 12.836 259.426 12.5276C259.426 12.219 259.737 11.9666 260.118 11.9666C260.499 11.9666 260.811 12.219 260.811 12.5276ZM276.812 15.7997C276.684 16.057 276.579 15.8464 276.579 15.3322C276.579 14.8181 276.684 14.6079 276.812 14.8648C276.94 15.1221 276.94 15.5428 276.812 15.7997ZM59.3022 20.1937C59.1453 20.3994 59.2371 20.5677 59.5058 20.5677C59.7745 20.5677 59.9947 20.3994 59.9947 20.1937C59.9947 19.988 59.9033 19.8197 59.7911 19.8197C59.6789 19.8197 59.4592 19.988 59.3022 20.1937ZM53.143 21.6895C53.143 22.2037 53.2478 22.4143 53.3757 22.157C53.504 21.9001 53.504 21.4793 53.3757 21.222C53.2478 20.9651 53.143 21.1754 53.143 21.6895ZM43.4614 22.1435C42.7421 22.7261 42.7596 23.293 43.4909 23.0784C43.8085 22.9853 44.4183 23.1558 44.8467 23.4576C45.2752 23.7597 45.8462 23.8958 46.1163 23.7609C46.7741 23.4314 46.7413 22.8114 46.0664 22.8114C45.7691 22.8114 45.1842 22.5612 44.7673 22.2557C44.1825 21.8268 43.8837 21.8013 43.4614 22.1435ZM37.2523 23.7829C37.1003 23.9059 37.0874 24.2413 37.2236 24.5289C37.4221 24.9481 37.0621 25.0061 35.4061 24.8222C34.0913 24.6763 33.2253 24.7451 33.0222 25.011C32.8468 25.241 32.9234 25.4291 33.192 25.4291C33.4608 25.4291 33.6809 25.8289 33.6809 26.3172C33.6809 27.0154 33.928 27.2054 34.835 27.2054C35.648 27.2054 35.9892 27.0019 35.9892 26.5173C35.9892 25.7601 37.2748 25.0603 38.1825 25.324C38.5684 25.4361 38.657 25.275 38.4502 24.8382C38.2388 24.3925 38.3121 24.2705 38.6805 24.4549C38.9778 24.6038 39.2207 24.5653 39.2207 24.3693C39.2207 24.1733 38.892 23.9112 38.4903 23.7863C37.5943 23.5077 37.5915 23.5077 37.2523 23.7829ZM40.1439 24.5843C40.1439 25.2739 40.9971 25.5024 41.8715 25.0473C42.526 24.7062 42.5376 24.6606 41.9314 24.8105C41.5178 24.913 40.9468 24.808 40.662 24.5772C40.2792 24.2672 40.1439 24.2691 40.1439 24.5843ZM30.2186 25.803C30.0616 26.0087 30.1535 26.177 30.4222 26.177C30.6909 26.177 30.911 26.4156 30.911 26.7069C30.911 27.4746 31.9775 27.6477 32.5859 26.9788C32.9788 26.5468 32.9584 26.2862 32.5033 25.9179C31.7873 25.3374 30.6184 25.2787 30.2186 25.803ZM27.1025 26.8086C26.6579 26.9028 26.2946 27.2835 26.2946 27.6545C26.2946 28.0255 25.9443 28.5602 25.5158 28.8425C24.8377 29.2891 24.774 29.2749 25.0251 28.7322C25.1964 28.3609 25.0449 28.0255 24.6498 27.9025C24.2851 27.7892 23.9864 27.8594 23.9864 28.0584C23.9864 28.2577 23.6748 28.4208 23.2939 28.4208C22.9131 28.4208 22.6015 28.5838 22.6015 28.7831C22.6015 28.9821 22.3111 29.0549 21.9556 28.9443C20.9243 28.6238 20.795 29.2909 21.7373 30.0755C22.4995 30.7105 22.6015 30.7217 22.6015 30.1689C22.6015 29.8245 22.9131 29.5426 23.2939 29.5426C23.6748 29.5426 23.9864 29.8066 23.9864 30.1297C23.9864 31.1117 25.9788 30.6159 26.3449 29.5426C26.5458 28.9544 26.6814 28.8504 26.7101 29.2621C26.7618 29.9928 27.4594 30.1342 27.9353 29.5101C28.1056 29.2864 28.6337 29.1859 29.1089 29.2864C29.8142 29.4357 29.8917 29.3482 29.5345 28.807C29.2939 28.4432 29.2233 28.043 29.3775 27.9181C29.6845 27.6691 28.6666 26.5244 28.2002 26.5944C28.0406 26.6183 27.547 26.7147 27.1025 26.8086ZM29.9878 28.0467C29.396 28.3564 29.4126 28.4103 30.1032 28.4151C30.5478 28.4181 30.911 28.2525 30.911 28.0467C30.911 27.5906 30.8589 27.5906 29.9878 28.0467ZM17.8945 30.8406C15.518 32.0825 15.2687 32.4011 16.4846 32.6431C16.9288 32.7313 16.6176 32.7354 15.7922 32.652C14.2392 32.495 13.7259 33.0264 15.0365 33.4336C15.5092 33.5806 15.6939 33.937 15.5416 34.4085C15.4095 34.8173 15.4898 35.152 15.7202 35.152C15.95 35.152 16.1384 34.8154 16.1384 34.404C16.1384 33.5888 16.4786 33.4871 17.4823 34.0017C18.2385 34.3894 19.8316 33.7216 19.8316 33.017C19.8316 32.7486 20.1676 32.6454 20.6395 32.7684C21.2908 32.9381 21.319 32.9052 20.7844 32.5982C20.2439 32.2874 20.23 32.1117 20.7092 31.6439C21.1861 31.1787 21.1805 30.942 20.6797 30.3893C20.0929 29.7415 19.9554 29.7636 17.8945 30.8406ZM8.52129 38.8915C8.68056 39.1002 8.33525 39.2629 7.74065 39.2599C6.88291 39.255 6.80997 39.1832 7.36718 38.8915C8.2263 38.442 8.17828 38.442 8.52129 38.8915ZM278.122 48.6144C278.279 48.8201 278.071 48.9884 277.661 48.9884C277.249 48.9884 277.042 48.8201 277.199 48.6144C277.356 48.4087 277.564 48.2405 277.661 48.2405C277.757 48.2405 277.965 48.4087 278.122 48.6144ZM270.202 52.557C270.052 52.8745 269.83 53.0541 269.709 52.9561C269.588 52.8581 269.626 52.5982 269.793 52.3791C270.249 51.7822 270.515 51.8981 270.202 52.557ZM268.817 54.8008C268.667 55.1183 268.445 55.2978 268.324 55.1998C268.203 55.1018 268.24 54.8419 268.409 54.6228C268.864 54.026 269.13 54.1418 268.817 54.8008ZM258.041 56.0936C258.041 56.2992 257.82 56.4675 257.551 56.4675C257.283 56.4675 257.191 56.2992 257.348 56.0936C257.505 55.8879 257.725 55.7196 257.837 55.7196C257.949 55.7196 258.041 55.8879 258.041 56.0936ZM259.656 56.0936C259.813 56.2992 259.617 56.4675 259.222 56.4675C258.826 56.4675 258.502 56.2992 258.502 56.0936C258.502 55.8879 258.697 55.7196 258.936 55.7196C259.175 55.7196 259.499 55.8879 259.656 56.0936ZM228.957 63.5727C228.957 63.7784 228.749 63.9467 228.495 63.9467C228.242 63.9467 228.033 63.7784 228.033 63.5727C228.033 63.367 228.242 63.1987 228.495 63.1987C228.749 63.1987 228.957 63.367 228.957 63.5727ZM50.4544 66.9753C50.6658 67.1036 50.5102 67.3104 50.1081 67.4353C49.5814 67.5991 49.3769 67.439 49.3769 66.8643C49.3769 66.4253 49.5329 66.2181 49.7231 66.4043C49.9133 66.5901 50.2425 66.8474 50.4544 66.9753ZM58.4846 67.5381C58.3314 67.6623 57.933 67.6757 57.6002 67.5677C57.2318 67.4484 57.3412 67.3597 57.879 67.3418C58.3655 67.3257 58.6379 67.414 58.4846 67.5381ZM171.713 68.9951C171.713 69.3175 171.297 69.556 170.733 69.556C169.914 69.556 169.848 69.4637 170.328 68.9951C170.644 68.6866 171.085 68.4342 171.307 68.4342C171.531 68.4342 171.713 68.6866 171.713 68.9951ZM121.163 69.1821C121.32 69.3877 121.112 69.556 120.701 69.556C120.29 69.556 120.082 69.3877 120.239 69.1821C120.396 68.9764 120.604 68.8081 120.701 68.8081C120.798 68.8081 121.006 68.9764 121.163 69.1821ZM102.928 69.3234C102.928 69.4009 102.616 69.6738 102.236 69.93C101.668 70.3114 101.543 70.2856 101.543 69.7886C101.543 69.4551 101.855 69.1821 102.236 69.1821C102.616 69.1821 102.928 69.2456 102.928 69.3234ZM133.396 69.347C133.396 69.4378 133.188 69.6158 132.934 69.743C132.681 69.8702 132.473 69.7958 132.473 69.5781C132.473 69.3604 132.681 69.1821 132.934 69.1821C133.188 69.1821 133.396 69.2561 133.396 69.347ZM112.891 70.304C113.251 70.304 113.545 70.6405 113.545 71.0518C113.545 71.4632 113.427 71.7998 113.282 71.7998C112.751 71.7998 111.927 70.8454 111.828 70.117C111.772 69.7056 111.841 69.5796 111.981 69.8365C112.122 70.0938 112.532 70.304 112.891 70.304ZM93.6948 71.0518C93.6948 71.5339 93.9283 71.799 94.2719 71.7063C94.5894 71.6206 94.8489 71.326 94.8489 71.0518C94.8489 70.7778 94.5894 70.4831 94.2719 70.3974C93.9283 70.3047 93.6948 70.5698 93.6948 71.0518ZM123.094 71.1222C122.947 71.4202 122.837 71.3316 122.815 70.8959C122.795 70.5018 122.904 70.2811 123.057 70.4052C123.21 70.5294 123.227 70.8522 123.094 71.1222ZM124.394 72.1737C124.552 72.3794 124.355 72.5477 123.959 72.5477C123.564 72.5477 123.24 72.3794 123.24 72.1737C123.24 71.9681 123.435 71.7998 123.675 71.7998C123.914 71.7998 124.237 71.9681 124.394 72.1737Z" fill="#9085F5"/>
</g>
<defs>
<clipPath id="clip0_6_7">
<rect width="297" height="73" fill="white"/>
</clipPath>
</defs>
</svg>
